<?xml version="1.0" encoding="UTF-8"?>
<svg xmlns="http://www.w3.org/2000/svg" version="1.1" xmlns:xlink="http://www.w3.org/1999/xlink" viewBox="0 0 2599 1733">
  <defs>
    <style>
      .cls-1 {
        fill: url(#Dégradé_sans_nom_81);
      }

      .cls-1, .cls-2, .cls-3, .cls-4, .cls-5, .cls-6, .cls-7, .cls-8, .cls-9, .cls-10, .cls-11, .cls-12, .cls-13, .cls-14 {
        stroke-width: 0px;
      }

      .cls-15 {
        font-family: MyriadPro-Regular, 'Myriad Pro';
        font-size: 195.4px;
      }

      .cls-15, .cls-14 {
        fill: #fff;
      }

      .cls-2 {
        fill: url(#linear-gradient);
      }

      .cls-3 {
        fill: #e98d52;
      }

      .cls-16 {
        isolation: isolate;
      }

      .cls-4 {
        fill: #b3b3b3;
      }

      .cls-5 {
        fill: url(#Dégradé_sans_nom_88);
      }

      .cls-6 {
        fill: url(#Dégradé_sans_nom_96);
      }

      .cls-7 {
        fill: none;
      }

      .cls-8 {
        fill: url(#Dégradé_sans_nom_119);
      }

      .cls-9 {
        fill: url(#Dégradé_sans_nom_104);
      }

      .cls-17 {
        clip-path: url(#clippath);
      }

      .cls-10 {
        fill: url(#Dégradé_sans_nom_110);
      }

      .cls-11 {
        fill: url(#Dégradé_sans_nom_16);
      }

      .cls-12 {
        fill: url(#Dégradé_sans_nom_34);
        mix-blend-mode: multiply;
        opacity: .3;
      }

      .cls-13 {
        fill: url(#Dégradé_sans_nom_29);
      }
    </style>
    <linearGradient id="Dégradé_sans_nom_81" data-name="Dégradé sans nom 81" x1="1890.3" y1="321.1" x2="45.8" y2="2165.6" gradientUnits="userSpaceOnUse">
      <stop offset="0" stop-color="#fff"/>
      <stop offset=".2" stop-color="#fffcf8"/>
      <stop offset=".6" stop-color="#fdffff"/>
      <stop offset=".8" stop-color="#fff"/>
      <stop offset="1" stop-color="#e98d52"/>
    </linearGradient>
    <radialGradient id="Dégradé_sans_nom_34" data-name="Dégradé sans nom 34" cx="-1193.6" cy="7003.6" fx="-1193.6" fy="7003.6" r="356.8" gradientTransform="translate(3625.8 -969.7) scale(2.3 .3)" gradientUnits="userSpaceOnUse">
      <stop offset="0" stop-color="#a94d12"/>
      <stop offset="0" stop-color="#b86c3c"/>
      <stop offset=".1" stop-color="#c88e69"/>
      <stop offset=".2" stop-color="#d7ac91"/>
      <stop offset=".3" stop-color="#e3c6b3"/>
      <stop offset=".4" stop-color="#eddbcf"/>
      <stop offset=".5" stop-color="#f5ebe4"/>
      <stop offset=".7" stop-color="#faf6f3"/>
      <stop offset=".8" stop-color="#fefcfc"/>
      <stop offset="1" stop-color="#fff"/>
    </radialGradient>
    <linearGradient id="Dégradé_sans_nom_29" data-name="Dégradé sans nom 29" x1="572.1" y1="517.1" x2="1124.5" y2="1137.2" gradientUnits="userSpaceOnUse">
      <stop offset="0" stop-color="#e98d52"/>
      <stop offset="1" stop-color="#e98d52"/>
    </linearGradient>
    <linearGradient id="Dégradé_sans_nom_16" data-name="Dégradé sans nom 16" x1="1269.2" y1="1104.8" x2="984.1" y2="1382.8" gradientUnits="userSpaceOnUse">
      <stop offset="0" stop-color="#e98d52"/>
      <stop offset="0" stop-color="#e2864b"/>
      <stop offset=".2" stop-color="#cd7136"/>
      <stop offset=".5" stop-color="#b95d22"/>
      <stop offset=".7" stop-color="#ad5116"/>
      <stop offset="1" stop-color="#a94d12"/>
    </linearGradient>
    <linearGradient id="Dégradé_sans_nom_104" data-name="Dégradé sans nom 104" x1="1296.2" y1="298.8" x2="1320.2" y2="325.7" gradientTransform="translate(656.1 -864) rotate(47.6)" gradientUnits="userSpaceOnUse">
      <stop offset="0" stop-color="#e98d52"/>
      <stop offset="1" stop-color="#e98d52"/>
    </linearGradient>
    <linearGradient id="Dégradé_sans_nom_96" data-name="Dégradé sans nom 96" x1="434.8" y1="1287.7" x2="446.9" y2="1301.3" gradientTransform="translate(1057.9 74.1) rotate(45.6)" gradientUnits="userSpaceOnUse">
      <stop offset="0" stop-color="#e98d52"/>
      <stop offset="1" stop-color="#e98d52"/>
    </linearGradient>
    <linearGradient id="Dégradé_sans_nom_110" data-name="Dégradé sans nom 110" x1="1121.3" y1="338.3" x2="1134.3" y2="353" gradientTransform="translate(711.6 -758.1) rotate(52.3)" gradientUnits="userSpaceOnUse">
      <stop offset="0" stop-color="#e98d52"/>
      <stop offset="1" stop-color="#e98d52"/>
    </linearGradient>
    <linearGradient id="Dégradé_sans_nom_119" data-name="Dégradé sans nom 119" x1="572.5" y1="1255.2" x2="585.5" y2="1269.7" gradientUnits="userSpaceOnUse">
      <stop offset="0" stop-color="#e98d52"/>
      <stop offset="1" stop-color="#e98d52"/>
    </linearGradient>
    <clipPath id="clippath">
      <rect class="cls-7" x="4.6" y="-.5" width="2598.1" height="1732.1"/>
    </clipPath>
    <linearGradient id="linear-gradient" x1="104.7" y1="-328.5" x2="570.5" y2="-328.5" gradientUnits="userSpaceOnUse">
      <stop offset="0" stop-color="#75e1ff"/>
      <stop offset=".2" stop-color="#5cd8f2"/>
      <stop offset=".8" stop-color="#1fc1d3"/>
      <stop offset="1" stop-color="#00b6c3"/>
    </linearGradient>
    <linearGradient id="Dégradé_sans_nom_88" data-name="Dégradé sans nom 88" x1="1751.4" y1="2143.3" x2="2436.4" y2="2143.3" gradientUnits="userSpaceOnUse">
      <stop offset="0" stop-color="#e98d52"/>
      <stop offset="1" stop-color="#e98d52"/>
    </linearGradient>
  </defs>
  <g class="cls-16">
    <g id="Layer_1" data-name="Layer 1">
      <g>
        <rect class="cls-14" x="4.6" y="-.5" width="2598.1" height="1732.1"/>
        <rect class="cls-1" x="9.6" y="383.6" width="2286.5" height="1349.9"/>
        <ellipse class="cls-12" cx="876.5" cy="1469.6" rx="821.9" ry="124.3"/>
        <g>
          <path class="cls-3" d="M696.4,1218.3c-51.7-32.7-92.1-79.9-121.3-141.9-29.3-61.9-43.9-135.8-43.9-221.6s14.6-159.7,43.9-221.6c29.2-61.9,69.7-109.2,121.3-141.9,51.6-32.7,110.5-49,176.6-49s124.9,16.3,176.6,49c51.6,32.7,92.1,80,121.3,141.9,29.2,61.9,43.9,135.8,43.9,221.6s-14.6,159.7-43.9,221.6c-29.3,61.9-69.7,109.2-121.3,141.9-51.7,32.7-110.5,49-176.6,49s-125-16.3-176.6-49ZM987.6,1048.5c27.7-41.8,41.6-106.3,41.6-193.7s-13.9-151.9-41.6-193.7c-27.7-41.8-65.9-62.7-114.5-62.7s-85.7,20.9-113.4,62.7c-27.7,41.8-41.6,106.4-41.6,193.7s13.9,151.9,41.6,193.7c27.7,41.8,65.5,62.7,113.4,62.7s86.8-20.9,114.5-62.7Z"/>
          <path class="cls-13" d="M873,397.8c73.2,0,138.4,18.1,195.7,54.3,57.2,36.2,102,88.6,134.4,157.2,32.4,68.6,48.6,150.4,48.6,245.5s-16.2,177-48.6,245.5c-32.4,68.6-77.2,121-134.4,157.2-57.2,36.2-122.5,54.3-195.7,54.3s-138.5-18.1-195.7-54.3c-57.2-36.2-102.1-88.6-134.4-157.2-32.4-68.6-48.6-150.4-48.6-245.5s16.2-176.9,48.6-245.5c32.4-68.6,77.2-121,134.4-157.2,57.2-36.2,122.5-54.3,195.7-54.3M873,1138.9c53.9,0,96.1-23.1,126.9-69.4,30.7-46.3,46.1-117.8,46.1-214.6s-15.4-168.3-46.1-214.6c-30.7-46.3-73-69.4-126.9-69.4s-94.9,23.2-125.6,69.4c-30.7,46.3-46.1,117.8-46.1,214.6s15.3,168.3,46.1,214.6c30.7,46.3,72.6,69.4,125.6,69.4M873,392.6c-73.9,0-140.7,18.5-198.5,55.1-57.8,36.6-103.7,90.2-136.4,159.4-32.6,69-49.1,152.3-49.1,247.8s16.5,178.8,49.1,247.8c32.7,69.2,78.6,122.8,136.4,159.4,57.8,36.6,124.6,55.1,198.5,55.1s140.7-18.5,198.5-55.1c57.8-36.5,103.7-90.2,136.4-159.4,32.6-69,49.1-152.4,49.1-247.8s-16.5-178.8-49.1-247.8c-32.7-69.2-78.6-122.8-136.4-159.4-57.8-36.6-124.6-55.1-198.5-55.1h0ZM873,1133.6c-50.9,0-91.7-22.6-121.2-67.1-30-45.2-45.2-116.4-45.2-211.7s15.2-166.5,45.2-211.7c29.5-44.5,70.3-67.1,121.2-67.1s92.9,22.6,122.5,67.1c30,45.2,45.2,116.4,45.2,211.7s-15.2,166.5-45.2,211.7c-29.5,44.5-70.8,67.1-122.5,67.1h0Z"/>
          <path class="cls-4" d="M1128,1066.7l-.2-8.6c16.7-.3,62.4-5.3,73.8-23.8,10-16.2-4.1-29.2-4.7-29.8l5.7-6.4c7,6.2,17.3,22.7,6.3,40.7-16.2,26.4-78.3,27.9-80.9,27.9Z"/>
          <path class="cls-11" d="M1203.8,1070.9l-101.1-39.5c-8.2-3.2-17.5-.7-22.9,6.3l-67,85.4c-3.9,5-5.2,11.5-3.5,17.6l67,245.2c2.9,10.6,13.9,16.9,24.5,14l168-45.9c10.6-2.9,16.9-13.9,14-24.5l-67-245.2c-1.7-6.1-6.1-11-12-13.3ZM1104.7,1083.9c-7.7,2.1-15.6-2.4-17.7-10.1-2.1-7.7,2.4-15.6,10.1-17.7,7.7-2.1,15.6,2.4,17.7,10.1,2.1,7.7-2.4,15.6-10.1,17.7Z"/>
          <path class="cls-4" d="M1094.4,1071.6c-42.5,0-91.9-13-114.5-38.7-10-11.4-13-23.7-8.3-34.7,5.9-13.9,23.5-23.5,44.9-24.6l.4,8.6c-18.1.9-32.8,8.5-37.5,19.3-3.3,7.9-.9,16.7,6.9,25.7,24.3,27.7,85.4,39.6,128.1,34.7l1,8.5c-6.7.8-13.7,1.1-21,1.1Z"/>
          <text class="cls-15" transform="translate(1115.3 1301) rotate(-16.5)"><tspan x="0" y="0">$</tspan></text>
        </g>
        <rect class="cls-9" x="1161.6" y="309.2" width="293.3" height="6" transform="translate(195.1 1067.2) rotate(-47.6)"/>
        <rect class="cls-6" x="351.1" y="1291.5" width="179.6" height="6" transform="translate(-792.8 704.4) rotate(-45.6)"/>
        <rect class="cls-10" x="1090.6" y="342.6" width="74.3" height="6" transform="translate(164.6 1026.6) rotate(-52.3)"/>
        <polygon class="cls-8" points="564.2 1288.6 561.4 1284.4 593.8 1236.3 596.7 1240.5 564.2 1288.6"/>
        <g class="cls-17">
          <path class="cls-2" d="M337.6-95.7c-128.4,0-232.9-104.5-232.9-232.9s104.5-232.9,232.9-232.9,232.9,104.5,232.9,232.9-104.5,232.9-232.9,232.9ZM337.6-555.4c-125.1,0-226.9,101.8-226.9,226.9s101.8,226.9,226.9,226.9,226.9-101.8,226.9-226.9-101.8-226.9-226.9-226.9Z"/>
          <path class="cls-5" d="M2093.9,2485.8c-188.8,0-342.5-153.6-342.5-342.5s153.6-342.5,342.5-342.5,342.5,153.6,342.5,342.5-153.6,342.5-342.5,342.5ZM2093.9,1806.9c-185.5,0-336.5,150.9-336.5,336.5s150.9,336.5,336.5,336.5,336.5-150.9,336.5-336.5-150.9-336.5-336.5-336.5Z"/>
        </g>
      </g>
    </g>
  </g>
</svg>